<?xml version="1.0"?>
<!--
    Copyright (C) 2016 Marco Scarpetta

    This file is part of Scopa.

    Scopa is free software: you can redistribute it and/or modify
    it under the terms of the GNU General Public License as published by
    the Free Software Foundation, either version 3 of the License, or
    (at your option) any later version.

    Scopa is distributed in the hope that it will be useful,
    but WITHOUT ANY WARRANTY; without even the implied warranty of
    MERCHANTABILITY or FITNESS FOR A PARTICULAR PURPOSE.  See the
    GNU General Public License for more details.

    You should have received a copy of the GNU General Public License
    along with Scopa.  If not, see <http://www.gnu.org/licenses/>.
-->

<svg width="100" height="100"
     viewBox="0 0 100 100"
     xmlns="http://www.w3.org/2000/svg"
     xmlns:xlink="http://www.w3.org/1999/xlink">

    <defs>
        <pattern id="cross" 
                 width="2" height="3"
                 patternUnits="userSpaceOnUse"
                 patternTransform="scale(0.7 0.7)">
            <rect x="0" y="0" width="2" height="3" style="fill: white"/>
            <line x1="0" y1="0" x2="2" y2="3" stroke="black" stroke-width="0.5"/>
            <line x1="2" y1="0" x2="0" y2="3" stroke="black" stroke-width="0.5"/>
	    </pattern>
        
        <pattern id="cubes" 
                 width="2" height="6"
                 patternUnits="userSpaceOnUse"
                 patternTransform="scale(3 2)">
            <polygon points="0,0 2,0 1,1" style="fill: white"/>
            <polygon points="0,0 1,1 1,3 0,2" style="fill: black"/>
            <polygon points="2,0 1,1 1,3 2,2" style="fill: gray"/>
            <polygon points="0,2 1,3 0,4" style="fill: white"/>
            <polygon points="2,2 1,3 2,4" style="fill: white"/>
            <polygon points="0,4 1,3 1,5 0,6" style="fill: gray"/>
            <polygon points="2,4 1,3 1,5 2,6" style="fill: black"/>
            <polygon points="0,6 1,5 2,6" style="fill: white"/>
	    </pattern>
    </defs>
    
    <defs>
        <symbol id="card">
            <rect x="1" y="1" width="58" height="98" rx="6" ry="6"
                  style="fill: white; stroke: #222; stroke-width:1"/>
            <text x="10" y="80"
                  font-family="sans-serif" font-size="80"
                  style="fill: red; stroke: #f60; stroke-width:2">
                S
            </text>
        </symbol>
    </defs>
    
    <use x="40" y="0" xlink:href="#card"/>
    <rect x="1" y="1" width="58" height="98" rx="6" ry="6"
          style="fill: url(#cross); stroke: #222; stroke-width:1"/>
    <rect x="6" y="6" width="48" height="88" rx="5" ry="5"
          style="fill: url(#cubes); stroke: black; stroke-width:1"/>
</svg>
